G04 start of page 3 for group 5 idx 5 *
G04 Title: QT-Slider Large, bottom *
G04 Creator: pcb 1.99z *
G04 CreationDate: Sat 07 Feb 2015 05:56:42 PM GMT UTC *
G04 For: tgack *
G04 Format: Gerber/RS-274X *
G04 PCB-Dimensions (mil): 1259.84 2598.43 *
G04 PCB-Coordinate-Origin: lower left *
%MOIN*%
%FSLAX25Y25*%
%LNBOTTOM*%
%ADD20C,0.0200*%
%ADD19C,0.0360*%
%ADD18C,0.0100*%
%ADD17C,0.0001*%
G54D17*G36*
X9843Y250000D02*X80709D01*
Y235827D01*
X57087Y189370D01*
X33465Y235827D01*
X9843Y189370D01*
Y250000D01*
G37*
G36*
Y186220D02*X33465Y232677D01*
X57087Y186220D01*
X80709Y232677D01*
Y157087D01*
X57087Y109843D01*
X33465Y157087D01*
X9843Y109843D01*
Y186220D01*
G37*
G36*
Y106693D02*X33465Y153937D01*
X57087Y106693D01*
X80709Y153937D01*
Y78346D01*
X57087Y31102D01*
X33465Y78346D01*
X9843Y31102D01*
Y106693D01*
G37*
G36*
Y27953D02*X33465Y75197D01*
X57087Y27953D01*
X80709Y75197D01*
Y13780D01*
X9843D01*
Y27953D01*
G37*
G54D18*X78740Y242126D02*X118110D01*
X78740Y21654D02*X118110D01*
X78740Y173228D02*X102362D01*
X78740Y94488D02*X102362D01*
G54D19*X118110Y21654D03*
Y242126D03*
X102362Y94488D03*
Y173228D03*
G54D20*M02*
