G04 start of page 9 for group -3984 idx -3984 *
G04 Title: QT-Slider Large, fab *
G04 Creator: pcb 1.99z *
G04 CreationDate: Sat 07 Feb 2015 05:56:42 PM GMT UTC *
G04 For: tgack *
G04 Format: Gerber/RS-274X *
G04 PCB-Dimensions (mil): 1259.84 2598.43 *
G04 PCB-Coordinate-Origin: lower left *
%MOIN*%
%FSLAX25Y25*%
%LNFAB*%
%ADD33C,0.0100*%
%ADD32C,0.0075*%
%ADD31C,0.0060*%
%ADD30C,0.0001*%
%ADD29R,0.0080X0.0080*%
G54D29*X118110Y21654D02*Y20054D01*
G54D30*G36*
X117564Y21800D02*X119643Y23000D01*
X120043Y22307D01*
X117964Y21107D01*
X117564Y21800D01*
G37*
G36*
X118257Y21107D02*X116177Y22307D01*
X116577Y23000D01*
X118657Y21800D01*
X118257Y21107D01*
G37*
G54D29*X118110Y242126D02*Y240526D01*
G54D30*G36*
X117564Y242273D02*X119643Y243472D01*
X120043Y242779D01*
X117964Y241580D01*
X117564Y242273D01*
G37*
G36*
X118257Y241580D02*X116177Y242779D01*
X116577Y243472D01*
X118657Y242273D01*
X118257Y241580D01*
G37*
G54D29*X102362Y94488D02*Y92888D01*
G54D30*G36*
X101816Y94635D02*X103895Y95835D01*
X104295Y95142D01*
X102216Y93942D01*
X101816Y94635D01*
G37*
G36*
X102509Y93942D02*X100429Y95142D01*
X100829Y95835D01*
X102909Y94635D01*
X102509Y93942D01*
G37*
G54D29*X102362Y173228D02*Y171628D01*
G54D30*G36*
X101816Y173375D02*X103895Y174575D01*
X104295Y173882D01*
X102216Y172682D01*
X101816Y173375D01*
G37*
G36*
X102509Y172682D02*X100429Y173882D01*
X100829Y174575D01*
X102909Y173375D01*
X102509Y172682D01*
G37*
G54D29*X15000Y316093D02*Y314493D01*
G54D30*G36*
X14454Y316239D02*X16533Y317439D01*
X16933Y316746D01*
X14853Y315546D01*
X14454Y316239D01*
G37*
G36*
X15147Y315546D02*X13067Y316746D01*
X13467Y317439D01*
X15546Y316239D01*
X15147Y315546D01*
G37*
G54D31*X135000Y318343D02*X136500Y315343D01*
X138000Y318343D01*
X136500Y315343D02*Y312343D01*
X139800Y315643D02*X142050D01*
X139800Y312343D02*X142800D01*
X139800Y318343D02*Y312343D01*
Y318343D02*X142800D01*
X147600D02*X148350Y317593D01*
X145350Y318343D02*X147600D01*
X144600Y317593D02*X145350Y318343D01*
X144600Y317593D02*Y316093D01*
X145350Y315343D01*
X147600D01*
X148350Y314593D01*
Y313093D01*
X147600Y312343D02*X148350Y313093D01*
X145350Y312343D02*X147600D01*
X144600Y313093D02*X145350Y312343D01*
X98000Y314593D02*X101000Y318343D01*
X98000Y314593D02*X101750D01*
X101000Y318343D02*Y312343D01*
X45000Y313093D02*X45750Y312343D01*
X45000Y317593D02*Y313093D01*
Y317593D02*X45750Y318343D01*
X47250D01*
X48000Y317593D01*
Y313093D01*
X47250Y312343D02*X48000Y313093D01*
X45750Y312343D02*X47250D01*
X45000Y313843D02*X48000Y316843D01*
X49800Y312343D02*X50550D01*
X52350Y313093D02*X53100Y312343D01*
X52350Y317593D02*Y313093D01*
Y317593D02*X53100Y318343D01*
X54600D01*
X55350Y317593D01*
Y313093D01*
X54600Y312343D02*X55350Y313093D01*
X53100Y312343D02*X54600D01*
X52350Y313843D02*X55350Y316843D01*
X57150Y317593D02*X57900Y318343D01*
X60150D01*
X60900Y317593D01*
Y316093D01*
X57150Y312343D02*X60900Y316093D01*
X57150Y312343D02*X60900D01*
X62700Y313093D02*X63450Y312343D01*
X62700Y317593D02*Y313093D01*
Y317593D02*X63450Y318343D01*
X64950D01*
X65700Y317593D01*
Y313093D01*
X64950Y312343D02*X65700Y313093D01*
X63450Y312343D02*X64950D01*
X62700Y313843D02*X65700Y316843D01*
X3000Y333343D02*X3750Y332593D01*
X750Y333343D02*X3000D01*
X0Y332593D02*X750Y333343D01*
X0Y332593D02*Y331093D01*
X750Y330343D01*
X3000D01*
X3750Y329593D01*
Y328093D01*
X3000Y327343D02*X3750Y328093D01*
X750Y327343D02*X3000D01*
X0Y328093D02*X750Y327343D01*
X5550Y330343D02*Y328093D01*
X6300Y327343D01*
X8550Y330343D02*Y325843D01*
X7800Y325093D02*X8550Y325843D01*
X6300Y325093D02*X7800D01*
X5550Y325843D02*X6300Y325093D01*
Y327343D02*X7800D01*
X8550Y328093D01*
X11100Y329593D02*Y327343D01*
Y329593D02*X11850Y330343D01*
X12600D01*
X13350Y329593D01*
Y327343D01*
Y329593D02*X14100Y330343D01*
X14850D01*
X15600Y329593D01*
Y327343D01*
X10350Y330343D02*X11100Y329593D01*
X17400Y333343D02*Y327343D01*
Y328093D02*X18150Y327343D01*
X19650D01*
X20400Y328093D01*
Y329593D02*Y328093D01*
X19650Y330343D02*X20400Y329593D01*
X18150Y330343D02*X19650D01*
X17400Y329593D02*X18150Y330343D01*
X22200Y329593D02*Y328093D01*
Y329593D02*X22950Y330343D01*
X24450D01*
X25200Y329593D01*
Y328093D01*
X24450Y327343D02*X25200Y328093D01*
X22950Y327343D02*X24450D01*
X22200Y328093D02*X22950Y327343D01*
X27000Y333343D02*Y328093D01*
X27750Y327343D01*
X0Y324093D02*X29250D01*
X41750Y333343D02*Y327343D01*
X43700Y333343D02*X44750Y332293D01*
Y328393D01*
X43700Y327343D02*X44750Y328393D01*
X41000Y327343D02*X43700D01*
X41000Y333343D02*X43700D01*
G54D32*X46550Y331843D02*Y331693D01*
G54D31*Y329593D02*Y327343D01*
X50300Y330343D02*X51050Y329593D01*
X48800Y330343D02*X50300D01*
X48050Y329593D02*X48800Y330343D01*
X48050Y329593D02*Y328093D01*
X48800Y327343D01*
X51050Y330343D02*Y328093D01*
X51800Y327343D01*
X48800D02*X50300D01*
X51050Y328093D01*
X54350Y329593D02*Y327343D01*
Y329593D02*X55100Y330343D01*
X55850D01*
X56600Y329593D01*
Y327343D01*
Y329593D02*X57350Y330343D01*
X58100D01*
X58850Y329593D01*
Y327343D01*
X53600Y330343D02*X54350Y329593D01*
X60650Y327343D02*X61400D01*
X65900Y328093D02*X66650Y327343D01*
X65900Y332593D02*X66650Y333343D01*
X65900Y332593D02*Y328093D01*
X68450Y333343D02*X69950D01*
X69200D02*Y327343D01*
X68450D02*X69950D01*
X72500Y329593D02*Y327343D01*
Y329593D02*X73250Y330343D01*
X74000D01*
X74750Y329593D01*
Y327343D01*
X71750Y330343D02*X72500Y329593D01*
X77300Y330343D02*X79550D01*
X76550Y329593D02*X77300Y330343D01*
X76550Y329593D02*Y328093D01*
X77300Y327343D01*
X79550D01*
X81350Y333343D02*Y327343D01*
Y329593D02*X82100Y330343D01*
X83600D01*
X84350Y329593D01*
Y327343D01*
X86150Y333343D02*X86900Y332593D01*
Y328093D01*
X86150Y327343D02*X86900Y328093D01*
X41000Y324093D02*X88700D01*
X96050Y327343D02*X98000D01*
X95000Y328393D02*X96050Y327343D01*
X95000Y332293D02*Y328393D01*
Y332293D02*X96050Y333343D01*
X98000D01*
X99800Y329593D02*Y328093D01*
Y329593D02*X100550Y330343D01*
X102050D01*
X102800Y329593D01*
Y328093D01*
X102050Y327343D02*X102800Y328093D01*
X100550Y327343D02*X102050D01*
X99800Y328093D02*X100550Y327343D01*
X104600Y330343D02*Y328093D01*
X105350Y327343D01*
X106850D01*
X107600Y328093D01*
Y330343D02*Y328093D01*
X110150Y329593D02*Y327343D01*
Y329593D02*X110900Y330343D01*
X111650D01*
X112400Y329593D01*
Y327343D01*
X109400Y330343D02*X110150Y329593D01*
X114950Y333343D02*Y328093D01*
X115700Y327343D01*
X114200Y331093D02*X115700D01*
X95000Y324093D02*X117200D01*
X130750Y333343D02*Y327343D01*
X130000Y333343D02*X133000D01*
X133750Y332593D01*
Y331093D01*
X133000Y330343D02*X133750Y331093D01*
X130750Y330343D02*X133000D01*
X135550Y333343D02*Y328093D01*
X136300Y327343D01*
X140050Y330343D02*X140800Y329593D01*
X138550Y330343D02*X140050D01*
X137800Y329593D02*X138550Y330343D01*
X137800Y329593D02*Y328093D01*
X138550Y327343D01*
X140800Y330343D02*Y328093D01*
X141550Y327343D01*
X138550D02*X140050D01*
X140800Y328093D01*
X144100Y333343D02*Y328093D01*
X144850Y327343D01*
X143350Y331093D02*X144850D01*
X147100Y327343D02*X149350D01*
X146350Y328093D02*X147100Y327343D01*
X146350Y329593D02*Y328093D01*
Y329593D02*X147100Y330343D01*
X148600D01*
X149350Y329593D01*
X146350Y328843D02*X149350D01*
Y329593D02*Y328843D01*
X154150Y333343D02*Y327343D01*
X153400D02*X154150Y328093D01*
X151900Y327343D02*X153400D01*
X151150Y328093D02*X151900Y327343D01*
X151150Y329593D02*Y328093D01*
Y329593D02*X151900Y330343D01*
X153400D01*
X154150Y329593D01*
X157450Y330343D02*Y329593D01*
Y328093D02*Y327343D01*
X155950Y332593D02*Y331843D01*
Y332593D02*X156700Y333343D01*
X158200D01*
X158950Y332593D01*
Y331843D01*
X157450Y330343D02*X158950Y331843D01*
X130000Y324093D02*X160750D01*
X0Y348343D02*X3000D01*
X1500D02*Y342343D01*
X4800Y348343D02*Y342343D01*
Y344593D02*X5550Y345343D01*
X7050D01*
X7800Y344593D01*
Y342343D01*
X10350D02*X12600D01*
X9600Y343093D02*X10350Y342343D01*
X9600Y344593D02*Y343093D01*
Y344593D02*X10350Y345343D01*
X11850D01*
X12600Y344593D01*
X9600Y343843D02*X12600D01*
Y344593D02*Y343843D01*
X15150Y344593D02*Y342343D01*
Y344593D02*X15900Y345343D01*
X17400D01*
X14400D02*X15150Y344593D01*
X19950Y342343D02*X22200D01*
X19200Y343093D02*X19950Y342343D01*
X19200Y344593D02*Y343093D01*
Y344593D02*X19950Y345343D01*
X21450D01*
X22200Y344593D01*
X19200Y343843D02*X22200D01*
Y344593D02*Y343843D01*
X28950Y345343D02*X29700Y344593D01*
X27450Y345343D02*X28950D01*
X26700Y344593D02*X27450Y345343D01*
X26700Y344593D02*Y343093D01*
X27450Y342343D01*
X29700Y345343D02*Y343093D01*
X30450Y342343D01*
X27450D02*X28950D01*
X29700Y343093D01*
X33000Y344593D02*Y342343D01*
Y344593D02*X33750Y345343D01*
X35250D01*
X32250D02*X33000Y344593D01*
X37800Y342343D02*X40050D01*
X37050Y343093D02*X37800Y342343D01*
X37050Y344593D02*Y343093D01*
Y344593D02*X37800Y345343D01*
X39300D01*
X40050Y344593D01*
X37050Y343843D02*X40050D01*
Y344593D02*Y343843D01*
X44550Y347143D02*X45750Y348343D01*
Y342343D01*
X44550D02*X46800D01*
X54300Y348343D02*Y342343D01*
X53550D02*X54300Y343093D01*
X52050Y342343D02*X53550D01*
X51300Y343093D02*X52050Y342343D01*
X51300Y344593D02*Y343093D01*
Y344593D02*X52050Y345343D01*
X53550D01*
X54300Y344593D01*
G54D32*X56100Y346843D02*Y346693D01*
G54D31*Y344593D02*Y342343D01*
X58350Y347593D02*Y342343D01*
Y347593D02*X59100Y348343D01*
X59850D01*
X57600Y345343D02*X59100D01*
X62100Y347593D02*Y342343D01*
Y347593D02*X62850Y348343D01*
X63600D01*
X61350Y345343D02*X62850D01*
X65850Y342343D02*X68100D01*
X65100Y343093D02*X65850Y342343D01*
X65100Y344593D02*Y343093D01*
Y344593D02*X65850Y345343D01*
X67350D01*
X68100Y344593D01*
X65100Y343843D02*X68100D01*
Y344593D02*Y343843D01*
X70650Y344593D02*Y342343D01*
Y344593D02*X71400Y345343D01*
X72900D01*
X69900D02*X70650Y344593D01*
X75450Y342343D02*X77700D01*
X74700Y343093D02*X75450Y342343D01*
X74700Y344593D02*Y343093D01*
Y344593D02*X75450Y345343D01*
X76950D01*
X77700Y344593D01*
X74700Y343843D02*X77700D01*
Y344593D02*Y343843D01*
X80250Y344593D02*Y342343D01*
Y344593D02*X81000Y345343D01*
X81750D01*
X82500Y344593D01*
Y342343D01*
X79500Y345343D02*X80250Y344593D01*
X85050Y348343D02*Y343093D01*
X85800Y342343D01*
X84300Y346093D02*X85800D01*
X93000Y348343D02*Y342343D01*
X92250D02*X93000Y343093D01*
X90750Y342343D02*X92250D01*
X90000Y343093D02*X90750Y342343D01*
X90000Y344593D02*Y343093D01*
Y344593D02*X90750Y345343D01*
X92250D01*
X93000Y344593D01*
X95550D02*Y342343D01*
Y344593D02*X96300Y345343D01*
X97800D01*
X94800D02*X95550Y344593D01*
G54D32*X99600Y346843D02*Y346693D01*
G54D31*Y344593D02*Y342343D01*
X101100Y348343D02*Y343093D01*
X101850Y342343D01*
X103350Y348343D02*Y343093D01*
X104100Y342343D01*
X109050D02*X111300D01*
X112050Y343093D01*
X111300Y343843D02*X112050Y343093D01*
X109050Y343843D02*X111300D01*
X108300Y344593D02*X109050Y343843D01*
X108300Y344593D02*X109050Y345343D01*
X111300D01*
X112050Y344593D01*
X108300Y343093D02*X109050Y342343D01*
G54D32*X113850Y346843D02*Y346693D01*
G54D31*Y344593D02*Y342343D01*
X115350Y345343D02*X118350D01*
X115350Y342343D02*X118350Y345343D01*
X115350Y342343D02*X118350D01*
X120900D02*X123150D01*
X120150Y343093D02*X120900Y342343D01*
X120150Y344593D02*Y343093D01*
Y344593D02*X120900Y345343D01*
X122400D01*
X123150Y344593D01*
X120150Y343843D02*X123150D01*
Y344593D02*Y343843D01*
X125700Y342343D02*X127950D01*
X128700Y343093D01*
X127950Y343843D02*X128700Y343093D01*
X125700Y343843D02*X127950D01*
X124950Y344593D02*X125700Y343843D01*
X124950Y344593D02*X125700Y345343D01*
X127950D01*
X128700Y344593D01*
X124950Y343093D02*X125700Y342343D01*
X133200Y345343D02*Y343093D01*
X133950Y342343D01*
X135450D01*
X136200Y343093D01*
Y345343D02*Y343093D01*
X138750Y342343D02*X141000D01*
X141750Y343093D01*
X141000Y343843D02*X141750Y343093D01*
X138750Y343843D02*X141000D01*
X138000Y344593D02*X138750Y343843D01*
X138000Y344593D02*X138750Y345343D01*
X141000D01*
X141750Y344593D01*
X138000Y343093D02*X138750Y342343D01*
X144300D02*X146550D01*
X143550Y343093D02*X144300Y342343D01*
X143550Y344593D02*Y343093D01*
Y344593D02*X144300Y345343D01*
X145800D01*
X146550Y344593D01*
X143550Y343843D02*X146550D01*
Y344593D02*Y343843D01*
X151350Y348343D02*Y342343D01*
X150600D02*X151350Y343093D01*
X149100Y342343D02*X150600D01*
X148350Y343093D02*X149100Y342343D01*
X148350Y344593D02*Y343093D01*
Y344593D02*X149100Y345343D01*
X150600D01*
X151350Y344593D01*
G54D32*X155850Y346843D02*Y346693D01*
G54D31*Y344593D02*Y342343D01*
X158100Y344593D02*Y342343D01*
Y344593D02*X158850Y345343D01*
X159600D01*
X160350Y344593D01*
Y342343D01*
X157350Y345343D02*X158100Y344593D01*
X165600Y348343D02*Y343093D01*
X166350Y342343D01*
X164850Y346093D02*X166350D01*
X167850Y348343D02*Y342343D01*
Y344593D02*X168600Y345343D01*
X170100D01*
X170850Y344593D01*
Y342343D01*
G54D32*X172650Y346843D02*Y346693D01*
G54D31*Y344593D02*Y342343D01*
X174900D02*X177150D01*
X177900Y343093D01*
X177150Y343843D02*X177900Y343093D01*
X174900Y343843D02*X177150D01*
X174150Y344593D02*X174900Y343843D01*
X174150Y344593D02*X174900Y345343D01*
X177150D01*
X177900Y344593D01*
X174150Y343093D02*X174900Y342343D01*
X182400Y348343D02*Y343093D01*
X183150Y342343D01*
X186900Y345343D02*X187650Y344593D01*
X185400Y345343D02*X186900D01*
X184650Y344593D02*X185400Y345343D01*
X184650Y344593D02*Y343093D01*
X185400Y342343D01*
X187650Y345343D02*Y343093D01*
X188400Y342343D01*
X185400D02*X186900D01*
X187650Y343093D01*
X190200Y345343D02*Y343093D01*
X190950Y342343D01*
X193200Y345343D02*Y340843D01*
X192450Y340093D02*X193200Y340843D01*
X190950Y340093D02*X192450D01*
X190200Y340843D02*X190950Y340093D01*
Y342343D02*X192450D01*
X193200Y343093D01*
X195000Y344593D02*Y343093D01*
Y344593D02*X195750Y345343D01*
X197250D01*
X198000Y344593D01*
Y343093D01*
X197250Y342343D02*X198000Y343093D01*
X195750Y342343D02*X197250D01*
X195000Y343093D02*X195750Y342343D01*
X199800Y345343D02*Y343093D01*
X200550Y342343D01*
X202050D01*
X202800Y343093D01*
Y345343D02*Y343093D01*
X205350Y348343D02*Y343093D01*
X206100Y342343D01*
X204600Y346093D02*X206100D01*
X207600Y340843D02*X209100Y342343D01*
X213600Y344593D02*X216600Y348343D01*
X213600Y344593D02*X217350D01*
X216600Y348343D02*Y342343D01*
X221850Y348343D02*Y342343D01*
Y344593D02*X222600Y345343D01*
X224100D01*
X224850Y344593D01*
Y342343D01*
X226650Y344593D02*Y343093D01*
Y344593D02*X227400Y345343D01*
X228900D01*
X229650Y344593D01*
Y343093D01*
X228900Y342343D02*X229650Y343093D01*
X227400Y342343D02*X228900D01*
X226650Y343093D02*X227400Y342343D01*
X231450Y348343D02*Y343093D01*
X232200Y342343D01*
X234450D02*X236700D01*
X233700Y343093D02*X234450Y342343D01*
X233700Y344593D02*Y343093D01*
Y344593D02*X234450Y345343D01*
X235950D01*
X236700Y344593D01*
X233700Y343843D02*X236700D01*
Y344593D02*Y343843D01*
X239250Y342343D02*X241500D01*
X242250Y343093D01*
X241500Y343843D02*X242250Y343093D01*
X239250Y343843D02*X241500D01*
X238500Y344593D02*X239250Y343843D01*
X238500Y344593D02*X239250Y345343D01*
X241500D01*
X242250Y344593D01*
X238500Y343093D02*X239250Y342343D01*
X247500Y348343D02*Y343093D01*
X248250Y342343D01*
X246750Y346093D02*X248250D01*
X249750Y344593D02*Y343093D01*
Y344593D02*X250500Y345343D01*
X252000D01*
X252750Y344593D01*
Y343093D01*
X252000Y342343D02*X252750Y343093D01*
X250500Y342343D02*X252000D01*
X249750Y343093D02*X250500Y342343D01*
X255300Y348343D02*Y343093D01*
X256050Y342343D01*
X254550Y346093D02*X256050D01*
X259800Y345343D02*X260550Y344593D01*
X258300Y345343D02*X259800D01*
X257550Y344593D02*X258300Y345343D01*
X257550Y344593D02*Y343093D01*
X258300Y342343D01*
X260550Y345343D02*Y343093D01*
X261300Y342343D01*
X258300D02*X259800D01*
X260550Y343093D01*
X263100Y348343D02*Y343093D01*
X263850Y342343D01*
G54D33*X0Y0D02*X125984D01*
Y259843D01*
X0D01*
Y0D02*Y259843D01*
G54D31*Y-9500D02*X3000D01*
X3750Y-8750D01*
Y-6950D02*Y-8750D01*
X3000Y-6200D02*X3750Y-6950D01*
X750Y-6200D02*X3000D01*
X750Y-3500D02*Y-9500D01*
X0Y-3500D02*X3000D01*
X3750Y-4250D01*
Y-5450D01*
X3000Y-6200D02*X3750Y-5450D01*
X5550Y-7250D02*Y-8750D01*
Y-7250D02*X6300Y-6500D01*
X7800D01*
X8550Y-7250D01*
Y-8750D01*
X7800Y-9500D02*X8550Y-8750D01*
X6300Y-9500D02*X7800D01*
X5550Y-8750D02*X6300Y-9500D01*
X12600Y-6500D02*X13350Y-7250D01*
X11100Y-6500D02*X12600D01*
X10350Y-7250D02*X11100Y-6500D01*
X10350Y-7250D02*Y-8750D01*
X11100Y-9500D01*
X13350Y-6500D02*Y-8750D01*
X14100Y-9500D01*
X11100D02*X12600D01*
X13350Y-8750D01*
X16650Y-7250D02*Y-9500D01*
Y-7250D02*X17400Y-6500D01*
X18900D01*
X15900D02*X16650Y-7250D01*
X23700Y-3500D02*Y-9500D01*
X22950D02*X23700Y-8750D01*
X21450Y-9500D02*X22950D01*
X20700Y-8750D02*X21450Y-9500D01*
X20700Y-7250D02*Y-8750D01*
Y-7250D02*X21450Y-6500D01*
X22950D01*
X23700Y-7250D01*
X28200D02*Y-8750D01*
Y-7250D02*X28950Y-6500D01*
X30450D01*
X31200Y-7250D01*
Y-8750D01*
X30450Y-9500D02*X31200Y-8750D01*
X28950Y-9500D02*X30450D01*
X28200Y-8750D02*X28950Y-9500D01*
X33000Y-6500D02*Y-8750D01*
X33750Y-9500D01*
X35250D01*
X36000Y-8750D01*
Y-6500D02*Y-8750D01*
X38550Y-3500D02*Y-8750D01*
X39300Y-9500D01*
X37800Y-5750D02*X39300D01*
X40800Y-3500D02*Y-8750D01*
X41550Y-9500D01*
G54D32*X43050Y-5000D02*Y-5150D01*
G54D31*Y-7250D02*Y-9500D01*
X45300Y-7250D02*Y-9500D01*
Y-7250D02*X46050Y-6500D01*
X46800D01*
X47550Y-7250D01*
Y-9500D01*
X44550Y-6500D02*X45300Y-7250D01*
X50100Y-9500D02*X52350D01*
X49350Y-8750D02*X50100Y-9500D01*
X49350Y-7250D02*Y-8750D01*
Y-7250D02*X50100Y-6500D01*
X51600D01*
X52350Y-7250D01*
X49350Y-8000D02*X52350D01*
Y-7250D02*Y-8000D01*
G54D32*X56850Y-5000D02*Y-5150D01*
G54D31*Y-7250D02*Y-9500D01*
X59100D02*X61350D01*
X62100Y-8750D01*
X61350Y-8000D02*X62100Y-8750D01*
X59100Y-8000D02*X61350D01*
X58350Y-7250D02*X59100Y-8000D01*
X58350Y-7250D02*X59100Y-6500D01*
X61350D01*
X62100Y-7250D01*
X58350Y-8750D02*X59100Y-9500D01*
X67350Y-3500D02*Y-8750D01*
X68100Y-9500D01*
X66600Y-5750D02*X68100D01*
X69600Y-3500D02*Y-9500D01*
Y-7250D02*X70350Y-6500D01*
X71850D01*
X72600Y-7250D01*
Y-9500D01*
X75150D02*X77400D01*
X74400Y-8750D02*X75150Y-9500D01*
X74400Y-7250D02*Y-8750D01*
Y-7250D02*X75150Y-6500D01*
X76650D01*
X77400Y-7250D01*
X74400Y-8000D02*X77400D01*
Y-7250D02*Y-8000D01*
X82650Y-6500D02*X84900D01*
X81900Y-7250D02*X82650Y-6500D01*
X81900Y-7250D02*Y-8750D01*
X82650Y-9500D01*
X84900D01*
X87450D02*X89700D01*
X86700Y-8750D02*X87450Y-9500D01*
X86700Y-7250D02*Y-8750D01*
Y-7250D02*X87450Y-6500D01*
X88950D01*
X89700Y-7250D01*
X86700Y-8000D02*X89700D01*
Y-7250D02*Y-8000D01*
X92250Y-7250D02*Y-9500D01*
Y-7250D02*X93000Y-6500D01*
X93750D01*
X94500Y-7250D01*
Y-9500D01*
X91500Y-6500D02*X92250Y-7250D01*
X97050Y-3500D02*Y-8750D01*
X97800Y-9500D01*
X96300Y-5750D02*X97800D01*
X100050Y-9500D02*X102300D01*
X99300Y-8750D02*X100050Y-9500D01*
X99300Y-7250D02*Y-8750D01*
Y-7250D02*X100050Y-6500D01*
X101550D01*
X102300Y-7250D01*
X99300Y-8000D02*X102300D01*
Y-7250D02*Y-8000D01*
X104850Y-7250D02*Y-9500D01*
Y-7250D02*X105600Y-6500D01*
X107100D01*
X104100D02*X104850Y-7250D01*
X108900Y-3500D02*Y-8750D01*
X109650Y-9500D01*
G54D32*X111150Y-5000D02*Y-5150D01*
G54D31*Y-7250D02*Y-9500D01*
X113400Y-7250D02*Y-9500D01*
Y-7250D02*X114150Y-6500D01*
X114900D01*
X115650Y-7250D01*
Y-9500D01*
X112650Y-6500D02*X113400Y-7250D01*
X118200Y-9500D02*X120450D01*
X117450Y-8750D02*X118200Y-9500D01*
X117450Y-7250D02*Y-8750D01*
Y-7250D02*X118200Y-6500D01*
X119700D01*
X120450Y-7250D01*
X117450Y-8000D02*X120450D01*
Y-7250D02*Y-8000D01*
X124950Y-7250D02*Y-8750D01*
Y-7250D02*X125700Y-6500D01*
X127200D01*
X127950Y-7250D01*
Y-8750D01*
X127200Y-9500D02*X127950Y-8750D01*
X125700Y-9500D02*X127200D01*
X124950Y-8750D02*X125700Y-9500D01*
X130500Y-4250D02*Y-9500D01*
Y-4250D02*X131250Y-3500D01*
X132000D01*
X129750Y-6500D02*X131250D01*
X136950Y-3500D02*Y-8750D01*
X137700Y-9500D01*
X136200Y-5750D02*X137700D01*
X139200Y-3500D02*Y-9500D01*
Y-7250D02*X139950Y-6500D01*
X141450D01*
X142200Y-7250D01*
Y-9500D01*
G54D32*X144000Y-5000D02*Y-5150D01*
G54D31*Y-7250D02*Y-9500D01*
X146250D02*X148500D01*
X149250Y-8750D01*
X148500Y-8000D02*X149250Y-8750D01*
X146250Y-8000D02*X148500D01*
X145500Y-7250D02*X146250Y-8000D01*
X145500Y-7250D02*X146250Y-6500D01*
X148500D01*
X149250Y-7250D01*
X145500Y-8750D02*X146250Y-9500D01*
X154500Y-7250D02*Y-11750D01*
X153750Y-6500D02*X154500Y-7250D01*
X155250Y-6500D01*
X156750D01*
X157500Y-7250D01*
Y-8750D01*
X156750Y-9500D02*X157500Y-8750D01*
X155250Y-9500D02*X156750D01*
X154500Y-8750D02*X155250Y-9500D01*
X161550Y-6500D02*X162300Y-7250D01*
X160050Y-6500D02*X161550D01*
X159300Y-7250D02*X160050Y-6500D01*
X159300Y-7250D02*Y-8750D01*
X160050Y-9500D01*
X162300Y-6500D02*Y-8750D01*
X163050Y-9500D01*
X160050D02*X161550D01*
X162300Y-8750D01*
X165600Y-3500D02*Y-8750D01*
X166350Y-9500D01*
X164850Y-5750D02*X166350D01*
X167850Y-3500D02*Y-9500D01*
Y-7250D02*X168600Y-6500D01*
X170100D01*
X170850Y-7250D01*
Y-9500D01*
X200750Y288343D02*Y282343D01*
X202700Y288343D02*X203750Y287293D01*
Y283393D01*
X202700Y282343D02*X203750Y283393D01*
X200000Y282343D02*X202700D01*
X200000Y288343D02*X202700D01*
X207800Y285343D02*X208550Y284593D01*
X206300Y285343D02*X207800D01*
X205550Y284593D02*X206300Y285343D01*
X205550Y284593D02*Y283093D01*
X206300Y282343D01*
X208550Y285343D02*Y283093D01*
X209300Y282343D01*
X206300D02*X207800D01*
X208550Y283093D01*
X211850Y288343D02*Y283093D01*
X212600Y282343D01*
X211100Y286093D02*X212600D01*
X214850Y282343D02*X217100D01*
X214100Y283093D02*X214850Y282343D01*
X214100Y284593D02*Y283093D01*
Y284593D02*X214850Y285343D01*
X216350D01*
X217100Y284593D01*
X214100Y283843D02*X217100D01*
Y284593D02*Y283843D01*
X218900Y286093D02*X219650D01*
X218900Y284593D02*X219650D01*
X227150Y288343D02*X227900Y287593D01*
X224900Y288343D02*X227150D01*
X224150Y287593D02*X224900Y288343D01*
X224150Y287593D02*Y286093D01*
X224900Y285343D01*
X227150D01*
X227900Y284593D01*
Y283093D01*
X227150Y282343D02*X227900Y283093D01*
X224900Y282343D02*X227150D01*
X224150Y283093D02*X224900Y282343D01*
X231950Y285343D02*X232700Y284593D01*
X230450Y285343D02*X231950D01*
X229700Y284593D02*X230450Y285343D01*
X229700Y284593D02*Y283093D01*
X230450Y282343D01*
X232700Y285343D02*Y283093D01*
X233450Y282343D01*
X230450D02*X231950D01*
X232700Y283093D01*
X236000Y288343D02*Y283093D01*
X236750Y282343D01*
X235250Y286093D02*X236750D01*
X240950Y283093D02*X241700Y282343D01*
X240950Y287593D02*Y283093D01*
Y287593D02*X241700Y288343D01*
X243200D01*
X243950Y287593D01*
Y283093D01*
X243200Y282343D02*X243950Y283093D01*
X241700Y282343D02*X243200D01*
X240950Y283843D02*X243950Y286843D01*
X246500Y282343D02*X249500Y288343D01*
X245750D02*X249500D01*
X254000D02*Y282343D01*
Y288343D02*X257000D01*
X254000Y285643D02*X256250D01*
X259550Y282343D02*X261800D01*
X258800Y283093D02*X259550Y282343D01*
X258800Y284593D02*Y283093D01*
Y284593D02*X259550Y285343D01*
X261050D01*
X261800Y284593D01*
X258800Y283843D02*X261800D01*
Y284593D02*Y283843D01*
X263600Y288343D02*Y282343D01*
Y283093D02*X264350Y282343D01*
X265850D01*
X266600Y283093D01*
Y284593D02*Y283093D01*
X265850Y285343D02*X266600Y284593D01*
X264350Y285343D02*X265850D01*
X263600Y284593D02*X264350Y285343D01*
X271100Y287593D02*X271850Y288343D01*
X274100D01*
X274850Y287593D01*
Y286093D01*
X271100Y282343D02*X274850Y286093D01*
X271100Y282343D02*X274850D01*
X276650Y283093D02*X277400Y282343D01*
X276650Y287593D02*Y283093D01*
Y287593D02*X277400Y288343D01*
X278900D01*
X279650Y287593D01*
Y283093D01*
X278900Y282343D02*X279650Y283093D01*
X277400Y282343D02*X278900D01*
X276650Y283843D02*X279650Y286843D01*
X281450Y287143D02*X282650Y288343D01*
Y282343D01*
X281450D02*X283700D01*
X285500Y288343D02*X288500D01*
X285500D02*Y285343D01*
X286250Y286093D01*
X287750D01*
X288500Y285343D01*
Y283093D01*
X287750Y282343D02*X288500Y283093D01*
X286250Y282343D02*X287750D01*
X285500Y283093D02*X286250Y282343D01*
X293000Y283093D02*X293750Y282343D01*
X293000Y287593D02*Y283093D01*
Y287593D02*X293750Y288343D01*
X295250D01*
X296000Y287593D01*
Y283093D01*
X295250Y282343D02*X296000Y283093D01*
X293750Y282343D02*X295250D01*
X293000Y283843D02*X296000Y286843D01*
X297800Y288343D02*X300800D01*
X297800D02*Y285343D01*
X298550Y286093D01*
X300050D01*
X300800Y285343D01*
Y283093D01*
X300050Y282343D02*X300800Y283093D01*
X298550Y282343D02*X300050D01*
X297800Y283093D02*X298550Y282343D01*
X302600Y286093D02*X303350D01*
X302600Y284593D02*X303350D01*
X305150Y288343D02*X308150D01*
X305150D02*Y285343D01*
X305900Y286093D01*
X307400D01*
X308150Y285343D01*
Y283093D01*
X307400Y282343D02*X308150Y283093D01*
X305900Y282343D02*X307400D01*
X305150Y283093D02*X305900Y282343D01*
X312200Y288343D02*X312950Y287593D01*
X310700Y288343D02*X312200D01*
X309950Y287593D02*X310700Y288343D01*
X309950Y287593D02*Y283093D01*
X310700Y282343D01*
X312200Y285643D02*X312950Y284893D01*
X309950Y285643D02*X312200D01*
X310700Y282343D02*X312200D01*
X312950Y283093D01*
Y284893D02*Y283093D01*
X314750Y286093D02*X315500D01*
X314750Y284593D02*X315500D01*
X317300D02*X320300Y288343D01*
X317300Y284593D02*X321050D01*
X320300Y288343D02*Y282343D01*
X322850Y287593D02*X323600Y288343D01*
X325850D01*
X326600Y287593D01*
Y286093D01*
X322850Y282343D02*X326600Y286093D01*
X322850Y282343D02*X326600D01*
X331850Y288343D02*Y282343D01*
X331100Y288343D02*X334100D01*
X334850Y287593D01*
Y286093D01*
X334100Y285343D02*X334850Y286093D01*
X331850Y285343D02*X334100D01*
X336650Y288343D02*Y282343D01*
Y288343D02*X338900Y285343D01*
X341150Y288343D01*
Y282343D01*
X348650Y288343D02*X349400Y287593D01*
X346400Y288343D02*X348650D01*
X345650Y287593D02*X346400Y288343D01*
X345650Y287593D02*Y283093D01*
X346400Y282343D01*
X348650D01*
X349400Y283093D01*
Y284593D02*Y283093D01*
X348650Y285343D02*X349400Y284593D01*
X347150Y285343D02*X348650D01*
X351200Y288343D02*Y282343D01*
Y288343D02*X353450Y285343D01*
X355700Y288343D01*
Y282343D01*
X357500Y288343D02*X360500D01*
X359000D02*Y282343D01*
X365000Y288343D02*Y283093D01*
X365750Y282343D01*
X367250D01*
X368000Y283093D01*
Y288343D02*Y283093D01*
X369800Y288343D02*X372800D01*
X371300D02*Y282343D01*
X375650D02*X377600D01*
X374600Y283393D02*X375650Y282343D01*
X374600Y287293D02*Y283393D01*
Y287293D02*X375650Y288343D01*
X377600D01*
X200000Y301843D02*Y297343D01*
Y301843D02*X201050Y303343D01*
X202700D01*
X203750Y301843D01*
Y297343D01*
X200000Y300343D02*X203750D01*
X205550D02*Y298093D01*
X206300Y297343D01*
X207800D01*
X208550Y298093D01*
Y300343D02*Y298093D01*
X211100Y303343D02*Y298093D01*
X211850Y297343D01*
X210350Y301093D02*X211850D01*
X213350Y303343D02*Y297343D01*
Y299593D02*X214100Y300343D01*
X215600D01*
X216350Y299593D01*
Y297343D01*
X218150Y299593D02*Y298093D01*
Y299593D02*X218900Y300343D01*
X220400D01*
X221150Y299593D01*
Y298093D01*
X220400Y297343D02*X221150Y298093D01*
X218900Y297343D02*X220400D01*
X218150Y298093D02*X218900Y297343D01*
X223700Y299593D02*Y297343D01*
Y299593D02*X224450Y300343D01*
X225950D01*
X222950D02*X223700Y299593D01*
X227750Y301093D02*X228500D01*
X227750Y299593D02*X228500D01*
X233000Y303343D02*X236000D01*
X234500D02*Y297343D01*
G54D32*X237800Y301843D02*Y301693D01*
G54D31*Y299593D02*Y297343D01*
X240050Y299593D02*Y297343D01*
Y299593D02*X240800Y300343D01*
X241550D01*
X242300Y299593D01*
Y297343D01*
Y299593D02*X243050Y300343D01*
X243800D01*
X244550Y299593D01*
Y297343D01*
X239300Y300343D02*X240050Y299593D01*
X246350D02*Y298093D01*
Y299593D02*X247100Y300343D01*
X248600D01*
X249350Y299593D01*
Y298093D01*
X248600Y297343D02*X249350Y298093D01*
X247100Y297343D02*X248600D01*
X246350Y298093D02*X247100Y297343D01*
X251900Y303343D02*Y298093D01*
X252650Y297343D01*
X251150Y301093D02*X252650D01*
X254150Y303343D02*Y297343D01*
Y299593D02*X254900Y300343D01*
X256400D01*
X257150Y299593D01*
Y297343D01*
X258950Y300343D02*Y298093D01*
X259700Y297343D01*
X261950Y300343D02*Y295843D01*
X261200Y295093D02*X261950Y295843D01*
X259700Y295093D02*X261200D01*
X258950Y295843D02*X259700Y295093D01*
Y297343D02*X261200D01*
X261950Y298093D01*
X269450Y303343D02*X270200Y302593D01*
X267200Y303343D02*X269450D01*
X266450Y302593D02*X267200Y303343D01*
X266450Y302593D02*Y298093D01*
X267200Y297343D01*
X269450D01*
X270200Y298093D01*
Y299593D02*Y298093D01*
X269450Y300343D02*X270200Y299593D01*
X267950Y300343D02*X269450D01*
X274250D02*X275000Y299593D01*
X272750Y300343D02*X274250D01*
X272000Y299593D02*X272750Y300343D01*
X272000Y299593D02*Y298093D01*
X272750Y297343D01*
X275000Y300343D02*Y298093D01*
X275750Y297343D01*
X272750D02*X274250D01*
X275000Y298093D01*
X278300Y300343D02*X280550D01*
X277550Y299593D02*X278300Y300343D01*
X277550Y299593D02*Y298093D01*
X278300Y297343D01*
X280550D01*
X282350Y303343D02*Y297343D01*
Y299593D02*X284600Y297343D01*
X282350Y299593D02*X283850Y301093D01*
X200000Y318343D02*X203000D01*
X201500D02*Y312343D01*
G54D32*X204800Y316843D02*Y316693D01*
G54D31*Y314593D02*Y312343D01*
X207050Y318343D02*Y313093D01*
X207800Y312343D01*
X206300Y316093D02*X207800D01*
X209300Y318343D02*Y313093D01*
X210050Y312343D01*
X212300D02*X214550D01*
X211550Y313093D02*X212300Y312343D01*
X211550Y314593D02*Y313093D01*
Y314593D02*X212300Y315343D01*
X213800D01*
X214550Y314593D01*
X211550Y313843D02*X214550D01*
Y314593D02*Y313843D01*
X216350Y316093D02*X217100D01*
X216350Y314593D02*X217100D01*
X221600Y317593D02*Y313093D01*
Y317593D02*X222350Y318343D01*
X223850D01*
X224600Y317593D01*
Y313843D01*
X223100Y312343D02*X224600Y313843D01*
X222350Y312343D02*X223100D01*
X221600Y313093D02*X222350Y312343D01*
X223100Y314593D02*X224600Y312343D01*
X226400Y318343D02*X229400D01*
X227900D02*Y312343D01*
X231200Y315343D02*X234200D01*
X239000Y318343D02*X239750Y317593D01*
X236750Y318343D02*X239000D01*
X236000Y317593D02*X236750Y318343D01*
X236000Y317593D02*Y316093D01*
X236750Y315343D01*
X239000D01*
X239750Y314593D01*
Y313093D01*
X239000Y312343D02*X239750Y313093D01*
X236750Y312343D02*X239000D01*
X236000Y313093D02*X236750Y312343D01*
X241550Y318343D02*Y313093D01*
X242300Y312343D01*
G54D32*X243800Y316843D02*Y316693D01*
G54D31*Y314593D02*Y312343D01*
X248300Y318343D02*Y312343D01*
X247550D02*X248300Y313093D01*
X246050Y312343D02*X247550D01*
X245300Y313093D02*X246050Y312343D01*
X245300Y314593D02*Y313093D01*
Y314593D02*X246050Y315343D01*
X247550D01*
X248300Y314593D01*
X250850Y312343D02*X253100D01*
X250100Y313093D02*X250850Y312343D01*
X250100Y314593D02*Y313093D01*
Y314593D02*X250850Y315343D01*
X252350D01*
X253100Y314593D01*
X250100Y313843D02*X253100D01*
Y314593D02*Y313843D01*
X255650Y314593D02*Y312343D01*
Y314593D02*X256400Y315343D01*
X257900D01*
X254900D02*X255650Y314593D01*
X262400Y318343D02*Y312343D01*
X265400D01*
X269450Y315343D02*X270200Y314593D01*
X267950Y315343D02*X269450D01*
X267200Y314593D02*X267950Y315343D01*
X267200Y314593D02*Y313093D01*
X267950Y312343D01*
X270200Y315343D02*Y313093D01*
X270950Y312343D01*
X267950D02*X269450D01*
X270200Y313093D01*
X273500Y314593D02*Y312343D01*
Y314593D02*X274250Y315343D01*
X275750D01*
X272750D02*X273500Y314593D01*
X279800Y315343D02*X280550Y314593D01*
X278300Y315343D02*X279800D01*
X277550Y314593D02*X278300Y315343D01*
X277550Y314593D02*Y313093D01*
X278300Y312343D01*
X279800D01*
X280550Y313093D01*
X277550Y310843D02*X278300Y310093D01*
X279800D01*
X280550Y310843D01*
Y315343D02*Y310843D01*
X283100Y312343D02*X285350D01*
X282350Y313093D02*X283100Y312343D01*
X282350Y314593D02*Y313093D01*
Y314593D02*X283100Y315343D01*
X284600D01*
X285350Y314593D01*
X282350Y313843D02*X285350D01*
Y314593D02*Y313843D01*
X289850Y315343D02*X292850D01*
X297350Y318343D02*Y312343D01*
Y318343D02*X300350D01*
X297350Y315643D02*X299600D01*
X304400Y315343D02*X305150Y314593D01*
X302900Y315343D02*X304400D01*
X302150Y314593D02*X302900Y315343D01*
X302150Y314593D02*Y313093D01*
X302900Y312343D01*
X305150Y315343D02*Y313093D01*
X305900Y312343D01*
X302900D02*X304400D01*
X305150Y313093D01*
X307700Y318343D02*Y312343D01*
Y313093D02*X308450Y312343D01*
X309950D01*
X310700Y313093D01*
Y314593D02*Y313093D01*
X309950Y315343D02*X310700Y314593D01*
X308450Y315343D02*X309950D01*
X307700Y314593D02*X308450Y315343D01*
X313250Y314593D02*Y312343D01*
Y314593D02*X314000Y315343D01*
X315500D01*
X312500D02*X313250Y314593D01*
G54D32*X317300Y316843D02*Y316693D01*
G54D31*Y314593D02*Y312343D01*
X319550Y315343D02*X321800D01*
X318800Y314593D02*X319550Y315343D01*
X318800Y314593D02*Y313093D01*
X319550Y312343D01*
X321800D01*
X325850Y315343D02*X326600Y314593D01*
X324350Y315343D02*X325850D01*
X323600Y314593D02*X324350Y315343D01*
X323600Y314593D02*Y313093D01*
X324350Y312343D01*
X326600Y315343D02*Y313093D01*
X327350Y312343D01*
X324350D02*X325850D01*
X326600Y313093D01*
X329900Y318343D02*Y313093D01*
X330650Y312343D01*
X329150Y316093D02*X330650D01*
G54D32*X332150Y316843D02*Y316693D01*
G54D31*Y314593D02*Y312343D01*
X333650Y314593D02*Y313093D01*
Y314593D02*X334400Y315343D01*
X335900D01*
X336650Y314593D01*
Y313093D01*
X335900Y312343D02*X336650Y313093D01*
X334400Y312343D02*X335900D01*
X333650Y313093D02*X334400Y312343D01*
X339200Y314593D02*Y312343D01*
Y314593D02*X339950Y315343D01*
X340700D01*
X341450Y314593D01*
Y312343D01*
X338450Y315343D02*X339200Y314593D01*
X346700Y318343D02*Y312343D01*
X348650Y318343D02*X349700Y317293D01*
Y313393D01*
X348650Y312343D02*X349700Y313393D01*
X345950Y312343D02*X348650D01*
X345950Y318343D02*X348650D01*
X352250Y314593D02*Y312343D01*
Y314593D02*X353000Y315343D01*
X354500D01*
X351500D02*X352250Y314593D01*
X358550Y315343D02*X359300Y314593D01*
X357050Y315343D02*X358550D01*
X356300Y314593D02*X357050Y315343D01*
X356300Y314593D02*Y313093D01*
X357050Y312343D01*
X359300Y315343D02*Y313093D01*
X360050Y312343D01*
X357050D02*X358550D01*
X359300Y313093D01*
X361850Y315343D02*Y313093D01*
X362600Y312343D01*
X363350D01*
X364100Y313093D01*
Y315343D02*Y313093D01*
X364850Y312343D01*
X365600D01*
X366350Y313093D01*
Y315343D02*Y313093D01*
G54D32*X368150Y316843D02*Y316693D01*
G54D31*Y314593D02*Y312343D01*
X370400Y314593D02*Y312343D01*
Y314593D02*X371150Y315343D01*
X371900D01*
X372650Y314593D01*
Y312343D01*
X369650Y315343D02*X370400Y314593D01*
X376700Y315343D02*X377450Y314593D01*
X375200Y315343D02*X376700D01*
X374450Y314593D02*X375200Y315343D01*
X374450Y314593D02*Y313093D01*
X375200Y312343D01*
X376700D01*
X377450Y313093D01*
X374450Y310843D02*X375200Y310093D01*
X376700D01*
X377450Y310843D01*
Y315343D02*Y310843D01*
M02*
